<mxfile host="app.diagrams.net" agent="Mozilla/5.0 (X11; Ubuntu; Linux x86_64; rv:134.0) Gecko/20100101 Firefox/134.0" version="26.0.9">
  <diagram name="Page-1" id="NxLB_3lni_7uU_jPFe_L">
    <mxGraphModel dx="1044" dy="915" grid="1" gridSize="10" guides="1" tooltips="1" connect="1" arrows="1" fold="1" page="1" pageScale="1" pageWidth="850" pageHeight="1100" math="0" shadow="0">
      <root>
        <mxCell id="0" />
        <mxCell id="1" parent="0" />
        <mxCell id="yys_oS0ksdrworh1sM2V-30" value="" style="edgeStyle=orthogonalEdgeStyle;rounded=0;orthogonalLoop=1;jettySize=auto;html=1;" edge="1" parent="1" source="yys_oS0ksdrworh1sM2V-1" target="yys_oS0ksdrworh1sM2V-7">
          <mxGeometry relative="1" as="geometry" />
        </mxCell>
        <mxCell id="yys_oS0ksdrworh1sM2V-1" value="START" style="ellipse;whiteSpace=wrap;html=1;" vertex="1" parent="1">
          <mxGeometry x="330" y="70" width="120" height="80" as="geometry" />
        </mxCell>
        <mxCell id="yys_oS0ksdrworh1sM2V-31" value="" style="edgeStyle=orthogonalEdgeStyle;rounded=0;orthogonalLoop=1;jettySize=auto;html=1;" edge="1" parent="1" source="yys_oS0ksdrworh1sM2V-4" target="yys_oS0ksdrworh1sM2V-6">
          <mxGeometry relative="1" as="geometry" />
        </mxCell>
        <mxCell id="yys_oS0ksdrworh1sM2V-4" value="Read x, y" style="shape=parallelogram;perimeter=parallelogramPerimeter;whiteSpace=wrap;html=1;fixedSize=1;" vertex="1" parent="1">
          <mxGeometry x="330" y="440" width="120" height="60" as="geometry" />
        </mxCell>
        <mxCell id="yys_oS0ksdrworh1sM2V-16" value="" style="edgeStyle=orthogonalEdgeStyle;rounded=0;orthogonalLoop=1;jettySize=auto;html=1;" edge="1" parent="1" source="yys_oS0ksdrworh1sM2V-5" target="yys_oS0ksdrworh1sM2V-10">
          <mxGeometry relative="1" as="geometry" />
        </mxCell>
        <mxCell id="yys_oS0ksdrworh1sM2V-17" value="TRUE" style="edgeLabel;html=1;align=center;verticalAlign=middle;resizable=0;points=[];" vertex="1" connectable="0" parent="yys_oS0ksdrworh1sM2V-16">
          <mxGeometry x="-0.1" y="-2" relative="1" as="geometry">
            <mxPoint as="offset" />
          </mxGeometry>
        </mxCell>
        <mxCell id="yys_oS0ksdrworh1sM2V-22" style="edgeStyle=orthogonalEdgeStyle;rounded=0;orthogonalLoop=1;jettySize=auto;html=1;" edge="1" parent="1" source="yys_oS0ksdrworh1sM2V-5" target="yys_oS0ksdrworh1sM2V-12">
          <mxGeometry relative="1" as="geometry" />
        </mxCell>
        <mxCell id="yys_oS0ksdrworh1sM2V-23" value="FALSE" style="edgeLabel;html=1;align=center;verticalAlign=middle;resizable=0;points=[];" vertex="1" connectable="0" parent="yys_oS0ksdrworh1sM2V-22">
          <mxGeometry x="0.0833" y="2" relative="1" as="geometry">
            <mxPoint as="offset" />
          </mxGeometry>
        </mxCell>
        <mxCell id="yys_oS0ksdrworh1sM2V-5" value="&lt;div&gt;x &amp;gt; 0&lt;/div&gt;&lt;div&gt;AND&lt;/div&gt;&lt;div&gt;y &amp;gt; 0&lt;/div&gt;&lt;div&gt;&lt;br&gt;&lt;/div&gt;" style="rhombus;whiteSpace=wrap;html=1;" vertex="1" parent="1">
          <mxGeometry x="340" y="690" width="80" height="80" as="geometry" />
        </mxCell>
        <mxCell id="yys_oS0ksdrworh1sM2V-32" value="" style="edgeStyle=orthogonalEdgeStyle;rounded=0;orthogonalLoop=1;jettySize=auto;html=1;" edge="1" parent="1" source="yys_oS0ksdrworh1sM2V-6" target="yys_oS0ksdrworh1sM2V-5">
          <mxGeometry relative="1" as="geometry" />
        </mxCell>
        <mxCell id="yys_oS0ksdrworh1sM2V-6" value="N-=1" style="rounded=0;whiteSpace=wrap;html=1;" vertex="1" parent="1">
          <mxGeometry x="320" y="560" width="120" height="60" as="geometry" />
        </mxCell>
        <mxCell id="yys_oS0ksdrworh1sM2V-29" value="" style="edgeStyle=orthogonalEdgeStyle;rounded=0;orthogonalLoop=1;jettySize=auto;html=1;" edge="1" parent="1" source="yys_oS0ksdrworh1sM2V-7" target="yys_oS0ksdrworh1sM2V-8">
          <mxGeometry relative="1" as="geometry" />
        </mxCell>
        <mxCell id="yys_oS0ksdrworh1sM2V-7" value="Read N" style="shape=parallelogram;perimeter=parallelogramPerimeter;whiteSpace=wrap;html=1;fixedSize=1;" vertex="1" parent="1">
          <mxGeometry x="340" y="180" width="120" height="60" as="geometry" />
        </mxCell>
        <mxCell id="yys_oS0ksdrworh1sM2V-27" value="" style="edgeStyle=orthogonalEdgeStyle;rounded=0;orthogonalLoop=1;jettySize=auto;html=1;" edge="1" parent="1" source="yys_oS0ksdrworh1sM2V-8" target="yys_oS0ksdrworh1sM2V-4">
          <mxGeometry relative="1" as="geometry" />
        </mxCell>
        <mxCell id="yys_oS0ksdrworh1sM2V-28" value="TRUE" style="edgeLabel;html=1;align=center;verticalAlign=middle;resizable=0;points=[];" vertex="1" connectable="0" parent="yys_oS0ksdrworh1sM2V-27">
          <mxGeometry x="-0.2667" y="-1" relative="1" as="geometry">
            <mxPoint as="offset" />
          </mxGeometry>
        </mxCell>
        <mxCell id="yys_oS0ksdrworh1sM2V-36" style="edgeStyle=orthogonalEdgeStyle;rounded=0;orthogonalLoop=1;jettySize=auto;html=1;" edge="1" parent="1" source="yys_oS0ksdrworh1sM2V-8" target="yys_oS0ksdrworh1sM2V-24">
          <mxGeometry relative="1" as="geometry">
            <mxPoint x="180" y="660" as="targetPoint" />
            <Array as="points">
              <mxPoint x="181" y="330" />
              <mxPoint x="181" y="640" />
            </Array>
          </mxGeometry>
        </mxCell>
        <mxCell id="yys_oS0ksdrworh1sM2V-37" value="FALSE" style="edgeLabel;html=1;align=center;verticalAlign=middle;resizable=0;points=[];" vertex="1" connectable="0" parent="yys_oS0ksdrworh1sM2V-36">
          <mxGeometry x="-0.6561" y="7" relative="1" as="geometry">
            <mxPoint as="offset" />
          </mxGeometry>
        </mxCell>
        <mxCell id="yys_oS0ksdrworh1sM2V-8" value="N &amp;gt; 0" style="rhombus;whiteSpace=wrap;html=1;" vertex="1" parent="1">
          <mxGeometry x="370" y="290" width="80" height="80" as="geometry" />
        </mxCell>
        <mxCell id="yys_oS0ksdrworh1sM2V-40" style="edgeStyle=orthogonalEdgeStyle;rounded=0;orthogonalLoop=1;jettySize=auto;html=1;" edge="1" parent="1" source="yys_oS0ksdrworh1sM2V-10" target="yys_oS0ksdrworh1sM2V-41">
          <mxGeometry relative="1" as="geometry">
            <mxPoint x="380" y="970" as="targetPoint" />
          </mxGeometry>
        </mxCell>
        <mxCell id="yys_oS0ksdrworh1sM2V-10" value="Write x * y" style="shape=parallelogram;perimeter=parallelogramPerimeter;whiteSpace=wrap;html=1;fixedSize=1;" vertex="1" parent="1">
          <mxGeometry x="320" y="830" width="120" height="60" as="geometry" />
        </mxCell>
        <mxCell id="yys_oS0ksdrworh1sM2V-11" value="END" style="ellipse;whiteSpace=wrap;html=1;" vertex="1" parent="1">
          <mxGeometry x="10" y="310" width="120" height="80" as="geometry" />
        </mxCell>
        <mxCell id="yys_oS0ksdrworh1sM2V-14" value="" style="edgeStyle=orthogonalEdgeStyle;rounded=0;orthogonalLoop=1;jettySize=auto;html=1;" edge="1" parent="1" source="yys_oS0ksdrworh1sM2V-12" target="yys_oS0ksdrworh1sM2V-13">
          <mxGeometry relative="1" as="geometry" />
        </mxCell>
        <mxCell id="yys_oS0ksdrworh1sM2V-15" value="FALSE" style="edgeLabel;html=1;align=center;verticalAlign=middle;resizable=0;points=[];" vertex="1" connectable="0" parent="yys_oS0ksdrworh1sM2V-14">
          <mxGeometry x="-0.1333" y="1" relative="1" as="geometry">
            <mxPoint as="offset" />
          </mxGeometry>
        </mxCell>
        <mxCell id="yys_oS0ksdrworh1sM2V-25" style="edgeStyle=orthogonalEdgeStyle;rounded=0;orthogonalLoop=1;jettySize=auto;html=1;entryX=0.5;entryY=1;entryDx=0;entryDy=0;" edge="1" parent="1" source="yys_oS0ksdrworh1sM2V-12" target="yys_oS0ksdrworh1sM2V-24">
          <mxGeometry relative="1" as="geometry" />
        </mxCell>
        <mxCell id="yys_oS0ksdrworh1sM2V-26" value="TRUE" style="edgeLabel;html=1;align=center;verticalAlign=middle;resizable=0;points=[];" vertex="1" connectable="0" parent="yys_oS0ksdrworh1sM2V-25">
          <mxGeometry x="-0.4" y="1" relative="1" as="geometry">
            <mxPoint as="offset" />
          </mxGeometry>
        </mxCell>
        <mxCell id="yys_oS0ksdrworh1sM2V-12" value="&lt;div&gt;x &amp;lt; 0 &lt;br&gt;&lt;/div&gt;&lt;div&gt;AND&lt;/div&gt;&lt;div&gt;y &amp;lt; 0&lt;br&gt;&lt;/div&gt;" style="rhombus;whiteSpace=wrap;html=1;" vertex="1" parent="1">
          <mxGeometry x="140" y="690" width="80" height="80" as="geometry" />
        </mxCell>
        <mxCell id="yys_oS0ksdrworh1sM2V-39" style="edgeStyle=orthogonalEdgeStyle;rounded=0;orthogonalLoop=1;jettySize=auto;html=1;" edge="1" parent="1" source="yys_oS0ksdrworh1sM2V-13">
          <mxGeometry relative="1" as="geometry">
            <mxPoint x="380" y="990" as="targetPoint" />
            <Array as="points">
              <mxPoint x="170" y="935" />
              <mxPoint x="171" y="935" />
            </Array>
          </mxGeometry>
        </mxCell>
        <mxCell id="yys_oS0ksdrworh1sM2V-13" value="Write x + y" style="shape=parallelogram;perimeter=parallelogramPerimeter;whiteSpace=wrap;html=1;fixedSize=1;" vertex="1" parent="1">
          <mxGeometry x="110" y="820" width="120" height="60" as="geometry" />
        </mxCell>
        <mxCell id="yys_oS0ksdrworh1sM2V-24" value="Write &quot;errore&quot;" style="shape=parallelogram;perimeter=parallelogramPerimeter;whiteSpace=wrap;html=1;fixedSize=1;" vertex="1" parent="1">
          <mxGeometry y="610" width="120" height="60" as="geometry" />
        </mxCell>
        <mxCell id="yys_oS0ksdrworh1sM2V-35" style="edgeStyle=orthogonalEdgeStyle;rounded=0;orthogonalLoop=1;jettySize=auto;html=1;entryX=0.333;entryY=1;entryDx=0;entryDy=0;entryPerimeter=0;" edge="1" parent="1" source="yys_oS0ksdrworh1sM2V-24" target="yys_oS0ksdrworh1sM2V-11">
          <mxGeometry relative="1" as="geometry" />
        </mxCell>
        <mxCell id="yys_oS0ksdrworh1sM2V-42" style="edgeStyle=orthogonalEdgeStyle;rounded=0;orthogonalLoop=1;jettySize=auto;html=1;exitX=0.5;exitY=1;exitDx=0;exitDy=0;" edge="1" parent="1" source="yys_oS0ksdrworh1sM2V-41" target="yys_oS0ksdrworh1sM2V-7">
          <mxGeometry relative="1" as="geometry">
            <mxPoint x="570" y="200" as="targetPoint" />
            <mxPoint x="410" y="1262" as="sourcePoint" />
            <Array as="points">
              <mxPoint x="395" y="1262" />
              <mxPoint x="430" y="1262" />
              <mxPoint x="430" y="1263" />
              <mxPoint x="571" y="1263" />
              <mxPoint x="571" y="210" />
            </Array>
          </mxGeometry>
        </mxCell>
        <mxCell id="yys_oS0ksdrworh1sM2V-41" value="" style="ellipse;whiteSpace=wrap;html=1;aspect=fixed;" vertex="1" parent="1">
          <mxGeometry x="380" y="970" width="30" height="30" as="geometry" />
        </mxCell>
      </root>
    </mxGraphModel>
  </diagram>
</mxfile>
